<svg xmlns="http://www.w3.org/2000/svg" width="960" height="260" viewBox="0 0 960 260" fill="none">
  <defs>
    <linearGradient id="brand-green-dark" x1="42" y1="52" x2="190" y2="170" gradientUnits="userSpaceOnUse">
      <stop stop-color="#39B53D"/>
      <stop offset="1" stop-color="#72D839"/>
    </linearGradient>
  </defs>

  <rect width="960" height="260" fill="#0F1115"/>

  <g transform="translate(54 46)">
    <path d="M30 8H101C147.944 8 186 46.056 186 93C186 139.944 147.944 178 101 178H30C19.507 178 11 169.493 11 159V108C11 97.507 19.507 89 30 89H78L108 89.1L80.3 61H30C19.507 61 11 52.493 11 42V27C11 16.507 19.507 8 30 8Z" fill="url(#brand-green-dark)"/>
    <path d="M63 47H89.5L124.8 82.5L89.5 118H63L94 82.5L63 47Z" fill="#0F1115"/>
    <path d="M25 89H88.5L115.5 89.1L88.5 116H25C17.268 116 11 109.732 11 102C11 94.268 17.268 88 25 88V89Z" fill="url(#brand-green-dark)"/>
  </g>

  <text x="252" y="122"
        fill="#F6F8FA"
        font-family="Segoe UI, Arial, Helvetica, sans-serif"
        font-size="102"
        font-style="italic"
        font-weight="800"
        letter-spacing="-4">DINÂMICA</text>

  <text x="333" y="198"
        fill="#C7CDD6"
        font-family="Segoe UI, Arial, Helvetica, sans-serif"
        font-size="52"
        font-weight="400"
        letter-spacing="1.5">EMPREENDIMENTOS</text>
</svg>
